<svg xmlns="http://www.w3.org/2000/svg" width="674" height="367.911" viewBox="0 0 674 367.911">
  <g id="Group_43" data-name="Group 43" transform="translate(-191 -342)">
    <g id="fish-svgrepo-com" transform="translate(191 225.741)">
      <g id="Group_35" data-name="Group 35" transform="translate(302.775 116.259)">
        <path id="Path_29" data-name="Path 29" d="M256.579,161.716c54.142,35.147,33.7,38.533,14.084,51.424-16.866,11.08-11.1,24.893-6.6,34.4,87.175-11.6,155.607-3.608,207.271,11.128,3.768-8.663,31.332-88-193.663-141.127a44.607,44.607,0,0,0-32.667,4.451C232.989,128.985,225.454,141.5,256.579,161.716Z" transform="translate(-228.553 -116.259)" fill="#f4a026"/>
        <path id="Path_30" data-name="Path 30" d="M260.189,422.564c111.75-10.984,161.776-78.829,170.153-91.4-40.71,0-90.7-5.77-151.92-20.649,12.1,22,10.3,61.662-23.32,64.6-16.039,1.4-22.572,8.711-24.5,17.279C226.7,409.926,242.338,424.313,260.189,422.564Z" transform="translate(-230.001 -54.797)" fill="#f4a026"/>
        <path id="Path_31" data-name="Path 31" d="M423.328,395.652a12.718,12.718,0,0,1-3.858-24.835c18.768-5.983,31.105-14.546,35.681-24.768a24.129,24.129,0,0,0,.814-17.644,12.716,12.716,0,1,1,23.216-10.384,49.122,49.122,0,0,1-.818,38.418c-7.723,17.258-24.939,30.248-51.17,38.61A12.789,12.789,0,0,1,423.328,395.652Z" transform="translate(-172.855 -54.803)" fill="#f4a026"/>
      </g>
      <path id="Path_32" data-name="Path 32" d="M230.035,252.738C165.632,227.939,114.4,188.3,50,163.5c-24.488-9.431-50,10.9-50,39.844v.975c0,21.415,14.371,39.426,33.409,41.87q2.261.29,4.522.581c19.038,2.443,33.409,20.453,33.409,41.87v4.18c0,21.415-14.371,39.425-33.409,41.87q-2.261.29-4.522.581C14.371,337.714,0,355.724,0,377.139v.975c0,28.945,25.511,49.274,50,39.845,64.405-24.8,115.632-69,180.037-93.8C610.526,460.011,674,312.225,674,312.225S546.235,164.439,230.035,252.738Z" transform="translate(0 14.21)" fill="#e46a53"/>
      <circle id="Ellipse_3" data-name="Ellipse 3" cx="12.716" cy="12.716" r="12.716" transform="translate(582.389 308.163)" fill="#b15240"/>
      <g id="Group_36" data-name="Group 36" transform="translate(416.177 277.072)">
        <path id="Path_33" data-name="Path 33" d="M387.038,278.77a20.175,20.175,0,0,1,0-40.35Z" transform="translate(-300.099 -238.42)" fill="#f4a026"/>
        <path id="Path_34" data-name="Path 34" d="M387.038,309.421a20.175,20.175,0,0,1,0-40.35Z" transform="translate(-300.099 -228.722)" fill="#f4a026"/>
        <path id="Path_35" data-name="Path 35" d="M336.321,278.77a20.175,20.175,0,0,1,0-40.35Z" transform="translate(-316.146 -238.42)" fill="#f4a026"/>
        <path id="Path_36" data-name="Path 36" d="M336.321,309.421a20.175,20.175,0,0,1,0-40.35Z" transform="translate(-316.146 -228.722)" fill="#f4a026"/>
      </g>
    </g>
  </g>
</svg>
