<svg xmlns="http://www.w3.org/2000/svg" width="160.628" height="142.789" viewBox="0 0 160.628 142.789">
  <path id="Path_22" data-name="Path 22" d="M155,118.629,10.674,126.094l-.643-11.912,144.4-7.465Zm-.4,15.248H10.031v11.912H154.6Zm8.031-114.994V74.474a16.021,16.021,0,0,1-16.063,15.883H18.063A16.021,16.021,0,0,1,2,74.474V18.883A16.021,16.021,0,0,1,18.063,3h128.5A16.021,16.021,0,0,1,162.628,18.883Zm-16.063,7.942c-13.493,0-24.416,7.783-25.781,17.71-5.14-5.8-21.926-21.68-52.526-21.68-37.507,0-54.212,23.825-54.212,23.825S30.752,70.5,68.259,70.5c30.6,0,47.385-15.883,52.526-21.68,1.365,9.927,12.288,17.71,25.781,17.71Z" transform="translate(-2 -3)" fill="#dd8807"/>
</svg>
