<svg xmlns="http://www.w3.org/2000/svg" width="196" height="196" viewBox="0 0 196 196">
  <g id="outdoor_grill_black_24dp" transform="translate(0 0.135)">
    <g id="Group_46" data-name="Group 46" transform="translate(0 -0.135)">
      <rect id="Rectangle_45" data-name="Rectangle 45" width="196" height="196" fill="none"/>
    </g>
    <g id="Group_48" data-name="Group 48" transform="translate(41.844 16.072)">
      <g id="Group_47" data-name="Group 47">
        <path id="Path_43" data-name="Path 43" d="M101.432,123.5c13.34,0,24.108-11.055,24.108-24.751S114.772,74,101.432,74A24.244,24.244,0,0,0,78.771,90.5h-40.5L54.261,65.257a49.619,49.619,0,0,0,13.983,0l8.2,12.953A31.593,31.593,0,0,1,89.3,68.227l-4.822-7.673A57.778,57.778,0,0,0,117.5,8H5A57.712,57.712,0,0,0,38.108,60.554L6.366,110.716A8.377,8.377,0,0,0,8.7,122.1h0a7.9,7.9,0,0,0,11.09-2.393l8.036-12.788H78.771C82.146,116.574,90.985,123.5,101.432,123.5Zm0-33a8.253,8.253,0,1,1-8.036,8.25A8.169,8.169,0,0,1,101.432,90.5Z" transform="translate(-5 40.216)"/>
        <path id="Path_44" data-name="Path 44" d="M19.341,42.18h8.036C28.583,32.939,29.225,29,20.225,18.393,16.85,14.375,14.761,12.206,16.529,2H8.573c-1.688,8.92.241,16.474,7.152,23.787C17.493,27.715,22.073,31.171,19.341,42.18Z" transform="translate(16.098 -2)"/>
        <path id="Path_45" data-name="Path 45" d="M21.821,42.18h8.036C31.063,32.939,31.705,29,22.705,18.393,19.33,14.375,17.241,12.125,19.009,2H11.053c-1.688,8.92.241,16.474,7.152,23.787C20.053,27.715,24.634,31.171,21.821,42.18Z" transform="translate(33.547 -2)"/>
        <path id="Path_46" data-name="Path 46" d="M24.341,42.18h8.036C33.583,32.939,34.225,29,25.225,18.393,21.85,14.375,19.761,12.206,21.529,2H13.573c-1.688,8.92.241,16.474,7.152,23.787C22.493,27.715,27.073,31.171,24.341,42.18Z" transform="translate(51.278 -2)"/>
      </g>
    </g>
  </g>
</svg>
