<svg xmlns="http://www.w3.org/2000/svg" width="130.831" height="130.833" viewBox="0 0 130.831 130.833">
  <g id="Group_44" data-name="Group 44" transform="translate(-205.699 -802.664)">
    <g id="Group_21" data-name="Group 21" transform="translate(205.699 802.699)">
      <path id="Path_23" data-name="Path 23" d="M32.612,61.224A28.612,28.612,0,1,0,4,32.612,28.643,28.643,0,0,0,32.612,61.224Zm0-40.874A12.262,12.262,0,1,1,20.35,32.612,12.246,12.246,0,0,1,32.612,20.35Z" transform="translate(-4 -4)" fill="#5bc933"/>
    </g>
    <rect id="Rectangle_30" data-name="Rectangle 30" width="168.646" height="16.35" transform="translate(205.72 921.913) rotate(-45)" fill="#5bc933"/>
    <g id="Group_24" data-name="Group 24" transform="translate(279.272 876.272)">
      <path id="Path_24" data-name="Path 24" d="M41.612,13A28.612,28.612,0,1,0,70.224,41.612,28.643,28.643,0,0,0,41.612,13Zm0,40.874A12.262,12.262,0,1,1,53.874,41.612,12.246,12.246,0,0,1,41.612,53.874Z" transform="translate(-13 -13)" fill="#5bc933"/>
    </g>
  </g>
</svg>
